<?xml version="1.0" encoding="UTF-8" standalone="no"?>
<svg
   xmlns:dc="http://purl.org/dc/elements/1.1/"
   xmlns:cc="http://creativecommons.org/ns#"
   xmlns:rdf="http://www.w3.org/1999/02/22-rdf-syntax-ns#"
   xmlns:svg="http://www.w3.org/2000/svg"
   xmlns="http://www.w3.org/2000/svg"
   xml:space="preserve"
   enable-background="new 0 0 48 48"
   viewBox="0 0 48 48"
   height="48px"
   width="48px"
   y="0px"
   x="0px"
   id="Layer_1"
   version="1.1"><metadata
     id="metadata4248"><rdf:RDF><cc:Work
         rdf:about=""><dc:format>image/svg+xml</dc:format><dc:type
           rdf:resource="http://purl.org/dc/dcmitype/StillImage" /><dc:title></dc:title></cc:Work></rdf:RDF></metadata><defs
     id="defs4246" /><g
     id="g4230"><g
       transform="matrix(1.2584937,0,0,1.2584937,-4.3281952,-6.079757)"
       id="g3374"><path
         style="fill:#777;fill-opacity:1"
         id="path3376"
         d="m 9.692,20.597 c -1.883,0.446 -3.045,2.336 -2.596,4.216 0.45,1.88 2.336,3.042 4.216,2.591 1.877,-0.444 3.04,-2.331 2.591,-4.211 -0.445,-1.883 -2.334,-3.046 -4.211,-2.596 z" /></g><g
       transform="matrix(1.2584937,0,0,1.2584937,-13.078195,-6.079757)"
       id="g3378"><path
         style="fill:#333;fill-opacity:1"
         id="path3380"
         d="m 28.692,20.597 c -1.882,0.447 -3.044,2.336 -2.596,4.216 0.449,1.88 2.336,3.041 4.216,2.591 1.877,-0.445 3.04,-2.332 2.591,-4.211 -0.444,-1.882 -2.333,-3.045 -4.211,-2.596 z" /></g><g
       transform="matrix(1.2584937,0,0,1.2584937,-8.3281952,-6.079757)"
       id="g3382"><path
         style="fill:#555;fill-opacity:1"
         id="path3384"
         d="m 36.692,20.597 c -1.882,0.447 -3.044,2.336 -2.596,4.216 0.449,1.88 2.336,3.041 4.216,2.591 1.877,-0.445 3.04,-2.332 2.591,-4.211 -0.444,-1.882 -2.333,-3.045 -4.211,-2.596 z" /></g></g></svg>